HIERARCHY
ROOT hip
{
	OFFSET 0.000000 0.000000 0.000000
	CHANNELS 6 Xposition Yposition Zposition Xrotation Zrotation Yrotation 
	JOINT abdomen
	{
		OFFSET 0.000000 3.422050 0.000000
		CHANNELS 3 Xrotation Zrotation Yrotation 
		JOINT chest
		{
			OFFSET 0.000000 8.486693 -0.684411
			CHANNELS 3 Xrotation Zrotation Yrotation 
			JOINT neck
			{
				OFFSET 0.000000 10.266162 -0.273764
				CHANNELS 3 Xrotation Zrotation Yrotation 
				JOINT head
				{
					OFFSET 0.000000 3.148285 0.000000
					CHANNELS 3 Xrotation Zrotation Yrotation 
					End Site
					{
						OFFSET 0.000000 3.148289 0.000000
					}
				}
			}
			JOINT lCollar
			{
				OFFSET 3.422053 6.707223 -0.821293
				CHANNELS 3 Yrotation Zrotation Xrotation 
				JOINT lShldr
				{
					OFFSET 3.285171 0.000000 0.000000
					CHANNELS 3 Zrotation Yrotation Xrotation 
					JOINT lForeArm
					{
						OFFSET 10.129278 0.000000 0.000000
						CHANNELS 3 Yrotation Zrotation Xrotation 
						JOINT lHand
						{
							OFFSET 8.486692 0.000000 0.000000
							CHANNELS 3 Zrotation Yrotation Xrotation 
							End Site
							{
								OFFSET 4.106464 0.000000 0.000000
							}
						}
					}
				}
			}
			JOINT rCollar
			{
				OFFSET -3.558935 6.707223 -0.821293
				CHANNELS 3 Yrotation Zrotation Xrotation 
				JOINT rShldr
				{
					OFFSET -3.148289 0.000000 0.000000
					CHANNELS 3 Zrotation Yrotation Xrotation 
					JOINT rForeArm
					{
						OFFSET -10.266159 0.000000 0.000000
						CHANNELS 3 Yrotation Zrotation Xrotation 
						JOINT rHand
						{
							OFFSET -8.349810 0.000000 0.000000
							CHANNELS 3 Zrotation Yrotation Xrotation 
							End Site
							{
								OFFSET -4.106464 0.000000 0.000000
							}
						}
					}
				}
			}
		}
	}
	JOINT lThigh
	{
		OFFSET 5.338403 -1.642589 1.368821
		CHANNELS 3 Xrotation Zrotation Yrotation 
		JOINT lShin
		{
			OFFSET -2.053232 -20.121670 0.000000
			CHANNELS 3 Xrotation Zrotation Yrotation 
			JOINT lFoot
			{
				OFFSET 0.000000 -19.300380 -1.231939
				CHANNELS 3 Xrotation Yrotation Zrotation 
				End Site
				{
					OFFSET 0.000000 -2.463878 4.653993
				}
			}
		}
	}
	JOINT rThigh
	{
		OFFSET -5.338403 -1.642589 1.368821
		CHANNELS 3 Xrotation Zrotation Yrotation 
		JOINT rShin
		{
			OFFSET 2.053232 -20.121670 0.000000
			CHANNELS 3 Xrotation Zrotation Yrotation 
			JOINT rFoot
			{
				OFFSET 0.000000 -19.300380 -1.231939
				CHANNELS 3 Xrotation Yrotation Zrotation 
				End Site
				{
					OFFSET 0.000000 -2.463878 4.653993
				}
			}
		}
	}
}
MOTION
Frames: 16
Frame Time: 0.033264
-3.144903 18.518318 -6.240417 -11.309889 0.000000 0.000000 13.274580 -1.110921 -0.937324 6.841851 -1.431419 16.164936 -20.548250 -12.000725 -0.001966 -26.521082 -11.962560 13.051443 -73.600174 -3.586932 29.325380 -32.238438 -11.033479 -16.180765 -69.476532 13.909772 -58.719296 -24.645641 2.530154 39.906979 14.155193 2.599046 -17.189890 67.921310 18.734179 2.602620 36.114883 -15.203269 4.005946 59.431889 -10.748110 14.575770 -5.727948 30.770477 -34.564201 99.771255 -3.439023 9.727528 58.791737 -33.711029 12.267804 -79.555061 -57.147205 -15.677766 123.545609 -11.117891 -10.606459 -34.436668 13.147321 15.230711 
-3.144903 18.637417 -6.281118 -10.118372 0.000000 0.000000 13.274580 -1.110921 -0.937324 5.008893 -1.431379 16.165024 -20.351404 -12.000716 -0.001946 -26.346931 -12.008430 12.943476 -73.458191 -4.565627 29.814125 -32.359329 -11.051444 -16.137199 -69.476532 13.909770 -58.719296 -24.581919 2.394541 40.461460 14.175081 3.351468 -16.196741 67.921310 18.734179 2.602620 36.114883 -15.203269 4.005946 59.071178 -10.559116 15.140612 -6.879964 30.102768 -34.921577 99.771255 -3.439023 9.727528 58.794487 -33.812527 11.524584 -80.505165 -56.691509 -15.734383 123.209671 -11.083444 -10.551429 -34.255177 12.769173 15.311462 
-3.144903 18.756514 -6.321819 -8.927370 0.000000 0.000000 13.274580 -1.110921 -0.937324 3.177817 -1.431337 16.165113 -20.154541 -12.000710 -0.001927 -26.172613 -12.053993 12.835316 -73.307640 -5.542711 30.305853 -32.480240 -11.069320 -16.093594 -69.476532 13.909772 -58.719296 -24.519524 2.258333 41.015675 14.181907 4.103763 -15.203483 67.921310 18.734179 2.602620 36.114883 -15.203269 4.005946 58.712635 -10.366669 15.703817 -8.018970 29.429321 -35.260921 99.771255 -3.439023 9.727528 58.795643 -33.914005 10.780607 -81.444427 -56.236553 -15.803890 122.873810 -11.048683 -10.496616 -34.073402 12.391295 15.393312 
-3.144903 18.875612 -6.362520 -7.737139 0.000000 0.000000 13.274581 -1.110921 -0.937324 1.349539 -1.431291 16.165195 -19.957653 -12.000701 -0.001908 -25.998125 -12.099248 12.726965 -73.148491 -6.517931 30.800776 -32.601170 -11.087105 -16.049946 -69.476532 13.909772 -58.719296 -24.458460 2.121546 41.569611 14.175661 4.855530 -14.209991 67.921310 18.734179 2.602620 36.114883 -15.203269 4.005946 58.356331 -10.170805 16.265335 -9.145199 28.750658 -35.582504 99.771255 -3.439023 9.727528 58.795219 -34.015476 10.035940 -82.373177 -55.782536 -15.885780 122.538063 -11.013613 -10.442025 -33.891350 12.013707 15.476263 
-3.144903 18.994709 -6.403221 -6.547936 0.000000 0.000000 13.274581 -1.110921 -0.937324 -0.475005 -1.431243 16.165279 -19.760748 -12.000690 -0.001889 -25.823471 -12.144193 12.618423 -72.980644 -7.491029 31.299097 -32.722126 -11.104801 -16.006262 -69.476532 13.909772 -58.719296 -24.398745 1.984206 42.123241 14.156334 5.606364 -13.216166 67.921310 18.734179 2.602620 36.114883 -15.203269 4.005946 58.002308 -9.971573 16.825129 -10.258868 28.067245 -35.886578 99.771255 -3.439023 9.727528 58.793205 -34.116905 9.290640 -83.291702 -55.329647 -15.979605 122.202370 -10.978226 -10.387646 -33.709019 11.636421 15.560315 
-3.144903 19.113808 -6.443922 -5.360018 0.000000 0.000000 13.274580 -1.110921 -0.937324 -2.294915 -1.431192 16.165363 -19.563833 -12.000683 -0.001869 -25.648651 -12.188829 12.509695 -72.804024 -8.461744 31.801027 -32.843090 -11.122402 -15.962529 -69.476532 13.909770 -58.719296 -24.340384 1.846330 42.676552 14.123927 6.355865 -12.221898 67.921310 18.734179 2.602620 36.114883 -15.203269 4.005946 57.650581 -9.769010 17.383137 -11.360219 27.379568 -36.173428 99.771255 -3.439023 9.727528 58.789589 -34.218250 8.544756 -84.200363 -54.878071 -16.084869 121.866806 -10.942533 -10.333495 -33.526394 11.259456 15.645467 
-3.144903 19.232906 -6.484623 -4.173631 0.000000 0.000000 13.274580 -1.110921 -0.937324 -4.109293 -1.431139 16.165440 -19.366896 -12.000675 -0.001850 -25.473669 -12.233149 12.400777 -72.618523 -9.429820 32.306763 -32.964073 -11.139915 -15.918763 -69.476532 13.909772 -58.719296 -24.283363 1.707937 43.229507 14.078443 7.103638 -11.227076 67.921310 18.734179 2.602620 36.114883 -15.203269 4.005946 57.301216 -9.563163 17.939337 -12.449491 26.688095 -36.443310 99.771255 -3.439023 9.727528 58.784386 -34.319496 7.798355 -85.099487 -54.428020 -16.201130 121.531357 -10.906531 -10.279569 -33.343460 10.882823 15.731719 
-3.144903 19.352003 -6.525323 -2.989033 0.000000 0.000000 13.274580 -1.110921 -0.937324 -5.917253 -1.431084 16.165516 -19.169947 -12.000665 -0.001831 -25.298517 -12.277155 12.291674 -72.424057 -10.394996 32.816525 -33.085094 -11.157339 -15.874960 -69.476532 13.909772 -58.719296 -24.227718 1.569050 43.782101 14.019888 7.849278 -10.231598 67.921310 18.734179 2.602620 36.114883 -15.203269 4.005946 56.954269 -9.354084 18.493675 -13.526924 25.993294 -36.696514 99.771255 -3.439023 9.727528 58.777561 -34.420620 7.051485 -85.989227 -53.979618 -16.327965 121.196014 -10.870227 -10.225872 -33.160210 10.506536 15.819065 
-3.144903 19.471102 -6.566025 -1.806466 0.000000 0.000000 13.274581 -1.110921 -0.937324 -7.717942 -1.431026 16.165590 -18.972982 -12.000654 -0.001812 -25.123213 -12.320849 12.182388 -72.220497 -11.357013 33.330513 -33.206123 -11.174671 -15.831115 -69.476532 13.909772 -58.719296 -24.173435 1.429688 44.334301 13.948282 8.592402 -9.235355 67.921310 18.734179 2.602620 36.114883 -15.203269 4.005946 56.609753 -9.141809 19.046108 -14.592776 25.295626 -36.933350 99.771255 -3.439023 9.727528 58.769146 -34.521584 6.304210 -86.869980 -53.533089 -16.464945 120.860786 -10.833616 -10.172402 -32.976643 10.130611 15.907511 
-3.144903 19.590199 -6.606726 -0.626183 0.000000 0.000000 13.274580 -1.110921 -0.937324 -9.510514 -1.430966 16.165665 -18.776012 -12.000648 -0.001792 -24.947746 -12.364225 12.072917 -72.007767 -12.315616 33.848957 -33.327164 -11.191908 -15.787228 -69.476532 13.909770 -58.719296 -24.120527 1.289873 44.886093 13.863636 9.332612 -8.238246 67.921310 18.734179 2.602620 36.114883 -15.203269 4.005946 56.267727 -8.926397 19.596611 -15.647289 24.595537 -37.154099 99.771255 -3.439023 9.727528 58.759136 -34.622379 5.556587 -87.741890 -53.088570 -16.611668 120.525681 -10.796705 -10.119169 -32.792751 9.755070 15.997053 
-3.144903 19.709297 -6.647427 0.551578 0.000000 0.000000 13.274580 -1.110921 -0.937324 -11.294155 -1.430905 16.165733 -18.579029 -12.000640 -0.001773 -24.772120 -12.407288 11.963266 -71.785721 -13.270537 34.372055 -33.448227 -11.209056 -15.743304 -69.476532 13.909772 -58.719296 -24.068985 1.149624 45.437439 13.765982 10.069529 -7.240170 67.921310 18.734179 2.602620 36.114883 -15.203269 4.005946 55.928219 -8.707891 20.145134 -16.690718 23.893476 -37.359062 99.771255 -3.439023 9.727528 58.747517 -34.722973 4.808676 -88.605255 -52.646236 -16.767736 120.190720 -10.759496 -10.066173 -32.608521 9.379922 16.087694 
-3.144903 19.828394 -6.688128 1.726577 0.000000 0.000000 13.274580 -1.110921 -0.937324 -13.068077 -1.430842 16.165802 -18.382038 -12.000633 -0.001753 -24.596336 -12.450028 11.853434 -71.554283 -14.221539 34.900051 -33.569309 -11.226113 -15.699342 -69.476532 13.909772 -58.719296 -24.018843 1.008963 45.988350 13.655343 10.802770 -6.241025 67.921310 18.734179 2.602620 36.114883 -15.203269 4.005946 55.591270 -8.486340 20.691652 -17.723314 23.189873 -37.548542 99.771255 -3.439023 9.727528 58.734314 -34.823334 4.060534 -89.460251 -52.206219 -16.932755 119.855904 -10.721992 -10.013414 -32.423935 9.005177 16.179430 
-3.144903 19.947493 -6.728828 2.898575 0.000000 0.000000 13.274580 -1.110921 -0.937324 -14.831511 -1.430777 16.165867 -18.185034 -12.000623 -0.001734 -24.420399 -12.492451 11.743424 -71.313278 -15.168346 35.433147 -33.690414 -11.243080 -15.655344 -69.476532 13.909772 -58.719296 -23.970074 0.867911 46.538776 13.531754 11.531955 -5.240720 67.921310 18.734179 2.602620 36.114883 -15.203269 4.005946 55.256924 -8.261794 21.236122 -18.745323 22.485146 -37.722836 99.771255 -3.439023 9.727528 58.719498 -34.923447 3.312217 -90.307137 -51.768734 -17.106392 119.521210 -10.684193 -9.960896 -32.238991 8.630857 16.272257 
-3.144903 20.066589 -6.769529 4.067344 0.000000 0.000000 13.274581 -1.110921 -0.937324 -16.583733 -1.430710 16.165934 -17.988024 -12.000616 -0.001714 -24.244310 -12.534555 11.633238 -71.062630 -16.110714 35.971573 -33.811527 -11.259952 -15.611304 -69.476532 13.909772 -58.719296 -23.922697 0.726488 47.088718 13.395265 12.256726 -4.239162 67.921310 18.734179 2.602620 36.114883 -15.203269 4.005946 54.925190 -8.034304 21.778517 -19.757010 21.779724 -37.882275 99.771255 -3.439023 9.727528 58.703106 -35.023285 2.563789 -91.146057 -51.333862 -17.288248 119.186676 -10.646098 -9.908621 -32.053692 8.256975 16.366182 
-3.144903 20.185688 -6.810230 5.232648 0.000000 0.000000 13.274580 -1.110921 -0.937324 -18.324020 -1.430642 16.165995 -17.791008 -12.000606 -0.001694 -24.068064 -12.576335 11.522873 -70.802162 -17.048384 36.515564 -33.932652 -11.276733 -15.567231 -69.476532 13.909772 -58.719296 -23.876717 0.584717 47.638142 13.245914 12.976708 -3.236266 67.921310 18.734179 2.602620 36.114883 -15.203269 4.005946 54.596115 -7.803921 22.318800 -20.758595 21.073997 -38.027126 99.771255 -3.439023 9.727528 58.685101 -35.122807 1.815304 -91.977257 -50.901802 -17.477995 118.852303 -10.607715 -9.856592 -31.868017 7.883548 16.461203 
-3.144903 20.304787 -6.850931 6.394266 0.000000 0.000000 13.274580 -1.110921 -0.937324 -20.051712 -1.430573 16.166052 -17.593994 -12.000600 -0.001675 -23.891670 -12.617797 11.412338 -70.531746 -17.981110 37.065353 -34.053802 -11.293424 -15.523122 -69.476532 13.909772 -58.719296 -23.832129 0.442616 48.187031 13.083758 13.691548 -2.231948 67.921310 18.734179 2.602620 36.114883 -15.203269 4.005946 54.269718 -7.570697 22.856943 -21.750347 20.368382 -38.157726 99.771255 -3.439023 9.727528 58.665504 -35.222004 1.066825 -92.800880 -50.472649 -17.675283 118.518089 -10.569044 -9.804811 -31.681963 7.510586 16.557316 
